<svg width="40" height="40" viewBox="0 0 40 40" fill="none" xmlns="http://www.w3.org/2000/svg">
<circle cx="20" cy="20" r="18" fill="#D3C0F9"/>
<path fill-rule="evenodd" clip-rule="evenodd" d="M19.7779 27.0426H21.0031V26.6692C21.0031 26.3988 21.1179 26.1542 21.2838 25.9739C21.3731 25.8838 21.4752 25.8194 21.5773 25.7679V21.3259C21.2711 21.1199 21.0031 20.8495 20.8116 20.5148C20.5692 20.1028 20.416 19.6006 20.416 18.9569H21.0158C21.0158 19.4719 21.1307 19.871 21.3221 20.1929C21.5135 20.5148 21.7815 20.7465 22.0878 20.9268L22.1771 20.9783C22.1771 22.5491 22.1771 24.107 22.1771 25.6778H22.4834C22.611 25.6778 22.7386 25.7035 22.8535 25.755V21.6607H23.4533V25.7679C23.5681 25.7164 23.6958 25.6907 23.8234 25.6907H24.1297V21.3517H24.4359C24.5763 21.3517 24.806 21.1457 24.9974 20.798C25.1761 20.489 25.3037 20.077 25.3037 19.6006V17.5406V15.9312C26.5799 15.5835 27.856 15.2488 29.145 14.9012C29.2215 14.8754 29.4002 14.8239 29.4002 14.7209V14.5664L29.0301 14.2059L27.0393 14.0128L27.0138 13.7681C26.9755 13.3819 26.7968 13.0729 26.5288 12.8282C26.2098 12.5321 25.7759 12.339 25.291 12.236L23.1981 11.7982L23.1853 9.54504L18.2338 20.6822C18.5273 20.8109 18.7953 21.004 19.025 21.2229C19.4972 21.6993 19.7779 22.3431 19.7779 23.0641H19.1781C19.1781 22.5105 18.9612 22.0212 18.6039 21.6607C18.2465 21.3002 17.7488 21.0684 17.2129 21.0684C16.6641 21.0684 16.1792 21.2873 15.8218 21.6607C15.4645 22.0212 15.2348 22.5233 15.2348 23.0641V25.3945V27.0683H17.3277V26.6949C17.3277 26.4246 17.4426 26.1799 17.6085 25.9997C17.7871 25.8194 18.0296 25.7164 18.2976 25.7164H18.8208C19.0888 25.7164 19.3313 25.8323 19.5099 25.9997C19.6886 26.1799 19.7907 26.4246 19.7907 26.6949V27.0426H19.7779ZM12.5549 29.7593H10.9469V29.1541H12.5549V29.7593ZM13.6268 29.1541H24.1424V29.7593H13.6268V29.1541ZM8.10106 28.2657H28.9153V28.8709H8.10106V28.2657ZM20.5181 12.545L19.8928 13.9484L19.3441 13.7038L19.9694 12.3003L20.5181 12.545ZM19.5355 14.7467L17.2894 19.7809L16.7407 19.5363L18.9867 14.502L19.5355 14.7467ZM24.3721 13.0342H25.4951V13.6394H24.3721V13.0342ZM21.6156 27.0426V26.6692C21.6156 26.5662 21.6539 26.4761 21.7305 26.4117C21.7943 26.3473 21.8836 26.3087 21.9857 26.3087H22.5089C22.611 26.3087 22.7003 26.3473 22.7642 26.4117C22.828 26.4761 22.8663 26.5662 22.8663 26.6692V27.0426H21.6156ZM23.4788 27.0426V26.6692C23.4788 26.5662 23.5171 26.4761 23.5937 26.4117C23.6575 26.3473 23.7468 26.3087 23.8489 26.3087H24.1552H24.3721C24.4742 26.3087 24.5635 26.3473 24.6273 26.4117C24.6912 26.4761 24.7422 26.5662 24.7422 26.6692V27.0426H24.1552H23.4788ZM25.0357 27.6477H24.755H23.4788H23.1725H22.8663H21.0031H19.7779H19.4717H17.315H15.222H14.6223H12.0699V26.7464C12.0699 26.2572 12.4783 25.8452 12.9632 25.8452H13.0143C13.1419 25.5619 13.4227 25.3688 13.7417 25.3688H14.6223V23.0384C14.6223 22.3173 14.9158 21.6736 15.3752 21.1972C15.8474 20.7208 16.4854 20.4375 17.2001 20.4375C17.3532 20.4375 17.5064 20.4504 17.6595 20.4762L23.2108 8L23.7851 8.12875L23.7978 11.2961L25.4186 11.6308C25.9928 11.7467 26.5416 11.9913 26.9372 12.3647C27.2563 12.648 27.486 13.0214 27.5753 13.4463L29.2598 13.6136C29.464 13.6394 29.6554 13.7166 29.783 13.8583C29.9234 13.9999 30 14.1801 30 14.399V14.7209C30 14.9269 29.9234 15.0943 29.7958 15.223C29.6682 15.3518 29.4895 15.4419 29.3109 15.4805L25.929 16.3947V19.6135C25.929 20.2187 25.7631 20.7337 25.5462 21.1199C25.3292 21.5062 25.0357 21.7766 24.7677 21.9053V25.7937C24.8826 25.8452 24.9847 25.9095 25.0612 25.9997C25.2399 26.1799 25.342 26.4246 25.342 26.6949V27.6735H25.0357V27.6477ZM17.9147 27.0426V26.6692C17.9147 26.5662 17.953 26.4761 18.0168 26.4117C18.0807 26.3473 18.17 26.3087 18.2721 26.3087H18.7953C18.8974 26.3087 18.9867 26.3473 19.0505 26.4117C19.1143 26.4761 19.1526 26.5662 19.1526 26.6692V27.0426H17.9147ZM13.5503 26.1542L13.5375 26.4503H12.9632C12.7973 26.4503 12.6697 26.5791 12.6697 26.7464V27.0426H14.6095V25.9739H13.7289C13.6396 25.9739 13.563 26.0512 13.5503 26.1542Z" fill="#0B0F3C"/>
</svg>
