<svg width="40" height="40" viewBox="0 0 40 40" fill="none" xmlns="http://www.w3.org/2000/svg">
<circle cx="20" cy="20" r="18" fill="#B2CCFF"/>
<path d="M24.1339 23.2631C24.7791 24.0524 25.1942 25.0646 25.244 25.9828C25.2928 26.8831 24.9969 27.6235 24.3032 28.0785C24.032 28.2563 23.8212 28.2742 23.6043 28.2292C23.3414 28.1746 23.0425 28.0205 22.6377 27.7659C22.5492 27.7102 22.4541 27.6486 22.3539 27.5836C22.0382 27.3792 21.6717 27.1417 21.2994 26.9521C20.7889 26.6922 20.1888 26.4763 19.499 26.4763C18.8092 26.4763 18.2091 26.6922 17.6986 26.9521C17.3264 27.1417 16.9598 27.3792 16.6442 27.5836C16.5439 27.6486 16.4488 27.7102 16.3603 27.7659C15.9555 28.0205 15.6566 28.1746 15.3937 28.2292C15.1769 28.2742 14.966 28.2563 14.6949 28.0785C14.0012 27.6235 13.7053 26.8831 13.7541 25.9828C13.8039 25.0646 14.2189 24.0524 14.8642 23.2631C15.1405 22.9252 15.3984 22.5611 15.6384 22.2223C15.7056 22.1274 15.7713 22.0346 15.8357 21.9448C16.141 21.5193 16.4308 21.1397 16.7588 20.8147C17.3805 20.1989 18.1653 19.75 19.499 19.75C20.8328 19.75 21.6175 20.1989 22.2392 20.8147C22.5672 21.1397 22.8571 21.5193 23.1623 21.9448C23.2267 22.0346 23.2925 22.1274 23.3597 22.2223C23.5997 22.5611 23.8576 22.9252 24.1339 23.2631Z" stroke="#0B0F3C" stroke-width="1.5"/>
<path d="M22.8219 11.7396C22.8219 11.7392 22.8244 11.7402 22.8291 11.7436C22.8242 11.7417 22.8218 11.74 22.8219 11.7396ZM22.8679 11.7817C22.879 11.7947 22.892 11.8115 22.9069 11.8329C23.004 11.9732 23.1113 12.2291 23.1802 12.6097C23.3166 13.3629 23.2689 14.4185 22.9213 15.4926C22.8193 15.8079 22.6894 15.9806 22.5787 16.077C22.4707 16.171 22.3448 16.2242 22.1916 16.2427C21.8562 16.2834 21.4019 16.1508 20.9772 15.879C20.8319 15.786 20.722 15.6219 20.7572 15.2157C20.794 14.7908 20.9908 14.2446 21.3055 13.6743C21.615 13.1133 22.0055 12.5887 22.365 12.214C22.5455 12.026 22.7029 11.8916 22.8238 11.8101C22.8403 11.799 22.855 11.7896 22.8679 11.7817Z" stroke="#0B0F3C" stroke-width="1.5"/>
<path d="M16.2624 11.9879C16.2624 11.9875 16.2597 11.9875 16.2538 11.9893C16.2594 11.9893 16.2623 11.9884 16.2624 11.9879ZM16.2255 12.0022C16.2063 12.013 16.1793 12.0315 16.1436 12.0626C16.0148 12.1751 15.8502 12.3955 15.6961 12.7448C15.3908 13.4366 15.2023 14.4629 15.3134 15.5771C15.3456 15.9001 15.4372 16.0961 15.5302 16.2174C15.6224 16.3375 15.7462 16.4239 15.9094 16.4807C16.2612 16.6031 16.7683 16.5733 17.2646 16.4053C17.4431 16.3448 17.582 16.2127 17.6353 15.8282C17.6924 15.4158 17.6169 14.8469 17.4254 14.2233C17.2374 13.6111 16.9587 13.0146 16.6771 12.5694C16.5358 12.3461 16.405 12.1788 16.2984 12.0703C16.2681 12.0394 16.2438 12.0175 16.2255 12.0022Z" stroke="#0B0F3C" stroke-width="1.5"/>
<path d="M11.2202 16.9887C11.2202 16.9882 11.2175 16.9888 11.2122 16.992C11.2176 16.9907 11.2202 16.9891 11.2202 16.9887ZM11.1885 17.0107C11.1724 17.0257 11.1505 17.0503 11.1232 17.0896C11.0263 17.2292 10.9215 17.482 10.8587 17.8572C10.7344 18.6006 10.8063 19.6406 11.1905 20.6946C11.3018 20.9999 11.4391 21.1681 11.5595 21.2637C11.6787 21.3583 11.8206 21.4128 11.9934 21.429C12.3658 21.464 12.8506 21.3139 13.2904 21.0327C13.4487 20.9315 13.5502 20.7706 13.5066 20.3858C13.4597 19.9727 13.2454 19.4391 12.9049 18.8799C12.5706 18.3309 12.1523 17.8188 11.7686 17.454C11.5761 17.2711 11.4077 17.1399 11.2774 17.0601C11.2396 17.0369 11.2101 17.0212 11.1885 17.0107Z" stroke="#0B0F3C" stroke-width="1.5"/>
<path d="M27.1696 16.8904C27.1698 16.89 27.1672 16.889 27.1611 16.8885C27.1663 16.8905 27.1694 16.8908 27.1696 16.8904ZM27.1255 16.8902C27.1039 16.8931 27.0734 16.8995 27.032 16.9128C26.8669 16.9658 26.6248 17.1043 26.34 17.365C25.7759 17.8814 25.1832 18.7505 24.8298 19.817C24.7269 20.1276 24.7311 20.3441 24.7668 20.4915C24.8021 20.6368 24.8795 20.7628 25.0041 20.8771C25.2735 21.1241 25.7472 21.295 26.2701 21.3353C26.4573 21.3498 26.6423 21.2825 26.8509 20.9463C27.073 20.5884 27.2362 20.0354 27.3151 19.3886C27.3926 18.7532 27.3805 18.0969 27.304 17.5785C27.2656 17.3184 27.214 17.1141 27.1607 16.9734C27.1472 16.9377 27.1353 16.9105 27.1255 16.8902Z" stroke="#0B0F3C" stroke-width="1.5"/>
</svg>
