<svg width="40" height="40" viewBox="0 0 40 40" fill="none" xmlns="http://www.w3.org/2000/svg">
<circle cx="20" cy="20" r="18" fill="#B2CCFF"/>
<path fill-rule="evenodd" clip-rule="evenodd" d="M10.5889 13.3932C10.8929 13.2486 24.8716 13.3324 26.5218 13.3324C28.7217 13.3324 28.7673 12.9598 28.7662 15.1922L28.7663 25.1903C28.7674 25.7568 28.8835 26.5714 28.3994 26.7807C28.0536 26.9302 14.1233 26.8411 12.4581 26.8411C10.2887 26.8411 10.228 27.2455 10.2289 25.0052L10.2288 15.0071C10.228 14.4388 10.0878 13.6315 10.5889 13.3932V13.3932ZM10.746 12.1236C8.91313 12.5322 9.00039 13.4083 9.00075 15.0997L9.00082 24.3571C9.00082 28.993 9.13731 28.098 19.2123 28.098C20.6305 28.098 27.6393 28.1943 28.4365 28.0412C30.1731 27.7077 29.995 26.1379 29.9947 25.0052V15.7477C29.9947 11.1562 29.5696 12.075 19.86 12.075C18.6082 12.075 11.3537 11.9881 10.746 12.1236" fill="#0B0F3C"/>
<path fill-rule="evenodd" clip-rule="evenodd" d="M12.8829 24.2996C12.26 23.2552 12.9139 20.601 15.3295 20.734C17.6851 20.8637 18.1715 24.1953 17.0877 24.3719C16.5513 24.4594 13.3067 24.4096 12.8829 24.2996ZM14.6723 15.9039C16.1085 15.2369 17.1358 17.5453 15.5826 18.1388C14.1474 18.6872 13.1687 16.6022 14.6723 15.9039ZM14.6096 19.5461C11.3815 19.9608 10.619 24.1613 12.2692 25.2868C12.9757 25.7685 14.1431 25.6423 15.141 25.6423C17.1724 25.6423 19.0332 25.9054 18.8185 22.8924C18.6937 21.1399 17.3 19.7542 15.6716 19.5465C16.1465 19.1382 17.7505 18.723 17.5688 16.7608C17.458 15.5639 16.4444 14.5573 15.141 14.557C13.8415 14.5568 12.8227 15.5635 12.716 16.7608C12.5379 18.7599 14.191 19.1623 14.6096 19.5461" fill="#0B0F3C"/>
<path fill-rule="evenodd" clip-rule="evenodd" d="M20.3753 19.3935C21.6288 19.5554 25.9916 19.532 27.3058 19.4066C27.6128 18.8908 27.65 18.2739 26.7996 18.2739H20.878C20.0284 18.2739 20.0703 18.8925 20.3753 19.3935" fill="#0B0F3C"/>
<path fill-rule="evenodd" clip-rule="evenodd" d="M20.8781 21.9288H26.7968C27.7401 21.9288 27.7821 20.73 26.7997 20.73H20.8781C19.8787 20.73 19.9454 21.9288 20.8781 21.9288" fill="#0B0F3C"/>
<path fill-rule="evenodd" clip-rule="evenodd" d="M20.9703 24.3846H26.7068C27.8524 24.3846 27.7675 23.1858 26.7068 23.1858H20.9703C19.8859 23.1858 19.858 24.3846 20.9703 24.3846Z" fill="#0B0F3C"/>
<path fill-rule="evenodd" clip-rule="evenodd" d="M22.0144 15.8178C21.5524 15.8861 21.2127 16.1742 21.4869 16.7058C21.6734 17.0675 22.2485 17.0195 22.7274 17.0179C23.8071 17.0143 26.9279 17.4359 26.1862 16.091C25.9893 15.7339 25.4208 15.7852 24.9519 15.7874C24.1287 15.7912 22.7412 15.7105 22.0144 15.8178Z" fill="#0B0F3C"/>
</svg>
