<svg width="40" height="40" viewBox="0 0 40 40" fill="none" xmlns="http://www.w3.org/2000/svg">
<circle cx="20" cy="20" r="18" fill="#B3CCFF"/>
<path fill-rule="evenodd" clip-rule="evenodd" d="M17.0307 27.2223H10.5488V26.1008C10.5488 25.7914 10.6782 25.5078 10.8722 25.3144C11.0792 25.1082 11.3509 24.9922 11.6615 24.9922H14.042V19.333H13.3046C12.9294 19.333 12.593 19.1783 12.3472 18.9334C12.1272 18.7143 11.9849 18.4178 11.959 18.0955H10.1995C9.59137 18.0955 9.03504 17.8506 8.6469 17.451C8.24582 17.0513 8 16.497 8 15.904V13.6997H14.4819L14.6631 13.8802L20.9639 20.1581H24.0819C25.0523 20.1581 25.945 20.5577 26.5919 21.1893C27.2388 21.8339 27.627 22.7105 27.627 23.6902V23.7675H32V25.0824C32 25.4433 31.8577 25.7785 31.6119 26.0105C31.366 26.2555 31.0426 26.3973 30.6803 26.3973H30.4474C30.3957 26.5906 30.2792 26.7582 30.1499 26.8871C29.9429 27.0934 29.6582 27.2094 29.3477 27.2094C25.2464 27.2223 21.145 27.2223 17.0307 27.2223ZM16.4744 29.5556H15.2323V28.9497H16.4744V29.5556ZM17.2895 28.9497H25.4275V29.5556H17.2895V28.9497ZM10.8593 27.9055H29.1407V28.5114H10.8593V27.9055ZM24.1337 16.6002H23.5256V18.1986H24.1337V16.6002ZM22.9175 16.6002H22.3094V18.1986H22.9175V16.6002ZM21.6884 16.6002H21.0803V18.1986H21.6884V16.6002ZM23.6162 10H23.0081V12.5782L23.1892 12.6555C23.448 12.7715 23.6679 12.9649 23.8361 13.197C23.9914 13.429 24.069 13.6997 24.069 13.9962V15.4529H21.145V13.9962C21.145 13.6997 21.2356 13.429 21.3779 13.197C21.5332 12.9649 21.7531 12.7715 22.0248 12.6555L22.2059 12.5782V10H21.5978V12.1915C21.3003 12.359 21.0544 12.5911 20.8733 12.8618C20.6534 13.1841 20.5369 13.5708 20.5369 13.9833V16.0459H24.6771V13.9833C24.6771 13.5708 24.5477 13.1841 24.3407 12.8618C24.1596 12.5782 23.9137 12.359 23.6162 12.1915V10ZM10.4323 14.4989V15.1048H11.6226V14.4989H10.4323ZM9.57844 14.3056L8.60809 15.2724V15.8912C8.60809 16.3294 8.78922 16.7291 9.07385 17.0127C9.35849 17.2963 9.75957 17.4767 10.1995 17.4767H11.9461V14.2927H9.57844V14.3056ZM29.7229 26.4617C29.8264 26.3715 29.8782 26.2297 29.8911 26.0879L29.904 25.7914H30.6803C30.8744 25.7914 31.0555 25.7141 31.1849 25.5851C31.3143 25.4562 31.3919 25.2758 31.3919 25.0824V24.3734H27.627V26.6164H29.3477C29.49 26.6164 29.6323 26.5649 29.7229 26.4617ZM14.055 18.7143V14.3056H12.5542V17.9795C12.5542 18.1857 12.6318 18.3662 12.7741 18.508C12.9035 18.6369 13.0976 18.7272 13.3046 18.7272H14.055V18.7143ZM17.0307 26.6164V26.1008C17.0307 25.7914 17.1601 25.5078 17.3542 25.3144C17.5612 25.1082 17.8329 24.9922 18.1434 24.9922H20.524V20.5964L14.6501 14.7439V19.333V25.598H11.6615C11.5191 25.598 11.3898 25.6496 11.2992 25.7527C11.2086 25.843 11.1439 25.9719 11.1439 26.1137V26.6293H17.0307V26.6164ZM17.6388 26.6164H27.0189V23.6902C27.0189 22.8909 26.6825 22.1562 26.152 21.6276C25.6216 21.0991 24.8841 20.7639 24.0819 20.7639H21.145V25.598H18.1563C18.014 25.598 17.8846 25.6496 17.7941 25.7527C17.7035 25.843 17.6388 25.9719 17.6388 26.1137V26.6164Z" fill="#0B0F3C"/>
</svg>
