<svg width="40" height="40" viewBox="0 0 40 40" fill="none" xmlns="http://www.w3.org/2000/svg">
<circle cx="20" cy="20" r="18" fill="#F4D7D7"/>
<path fill-rule="evenodd" clip-rule="evenodd" d="M31.2017 21.4277C31.3676 21.4277 31.5127 21.2944 31.5127 21.1201C31.5127 20.9561 31.378 20.8125 31.2017 20.8125H8.7879C8.62203 20.8125 8.47689 20.9458 8.47689 21.1201C8.47689 21.2842 8.61166 21.4277 8.7879 21.4277C16.2626 21.4277 23.7374 21.4277 31.2017 21.4277ZM30.5071 23.8477C30.3724 23.9092 30.248 24.0015 30.1754 24.1348C29.968 24.4937 29.5741 24.7192 29.1594 24.7192C28.7447 24.7192 28.3508 24.4937 28.1434 24.1348C28.0812 24.0322 27.9983 23.9502 27.8946 23.8887C27.7909 23.8271 27.6769 23.7964 27.5525 23.7964C27.4281 23.7964 27.314 23.8271 27.2104 23.8887C27.1067 23.9502 27.0238 24.0322 26.9616 24.1348C26.7542 24.4937 26.3603 24.7192 25.9456 24.7192C25.5309 24.7192 25.1369 24.4937 24.9296 24.1348C24.8674 24.0322 24.7845 23.9502 24.6808 23.8887C24.5771 23.8271 24.4631 23.7964 24.3387 23.7964C24.2143 23.7964 24.1002 23.8271 23.9965 23.8887C23.8929 23.9502 23.8099 24.0322 23.7477 24.1348C23.5404 24.4937 23.1464 24.7192 22.7317 24.7192C22.3171 24.7192 21.9231 24.4937 21.7158 24.1348C21.6536 24.0322 21.5706 23.9502 21.467 23.8887C21.3633 23.8271 21.2492 23.7964 21.1248 23.7964C21.0004 23.7964 20.8864 23.8271 20.7827 23.8887C20.6791 23.9502 20.5961 24.0322 20.5339 24.1348C20.4302 24.3091 20.2851 24.4629 20.1089 24.5552C19.9326 24.6577 19.7356 24.709 19.5283 24.709C19.3209 24.709 19.124 24.6577 18.9477 24.5552C18.5745 24.3398 18.5538 24.0425 18.2635 23.8784C18.1598 23.8169 18.0458 23.7861 17.9214 23.7861C17.6726 23.7861 17.4549 23.9092 17.3305 24.1245C17.2268 24.3091 17.0816 24.4526 16.9054 24.5449C16.7292 24.6475 16.5322 24.6987 16.3248 24.6987C16.1175 24.6987 15.9205 24.6475 15.7443 24.5449C15.568 24.4424 15.4229 24.2988 15.3192 24.1245C15.257 24.022 15.1741 23.9399 15.0704 23.8784C14.9667 23.8169 14.8527 23.7861 14.7283 23.7861C14.6039 23.7861 14.4898 23.8169 14.3862 23.8784C14.2825 23.9399 14.1996 24.022 14.1374 24.1245C13.93 24.4834 13.5361 24.709 13.1214 24.709C12.7067 24.709 12.3127 24.4834 12.1054 24.1245C12.0432 24.022 11.9603 23.9399 11.8566 23.8784C11.7529 23.8169 11.6389 23.7861 11.5145 23.7861C11.3901 23.7861 11.276 23.8169 11.1724 23.8784C11.0687 23.9399 10.9857 24.022 10.9235 24.1245C10.7577 24.4014 10.4881 24.6064 10.1667 24.6782V25.3242C10.1667 26.4727 10.6436 27.5186 11.4108 28.2773C12.178 29.0361 13.2354 29.5078 14.3965 29.5078H26.3084C27.4695 29.5078 28.527 29.0361 29.2942 28.2773C30.0613 27.5186 30.5382 26.4727 30.5382 25.3242V23.8477H30.5071ZM29.7607 23.8989C29.6363 24.1143 29.4186 24.2373 29.1698 24.2373C28.9209 24.2373 28.7032 24.1143 28.5788 23.8989C28.4752 23.7144 28.33 23.5708 28.1538 23.4785C27.9775 23.376 27.7806 23.3247 27.5628 23.3247C27.3555 23.3247 27.1482 23.376 26.9719 23.4785C26.7957 23.5811 26.6505 23.7246 26.5469 23.8989C26.4225 24.1143 26.2047 24.2373 25.9559 24.2373C25.7071 24.2373 25.4894 24.1143 25.365 23.8989C25.2613 23.7144 25.1162 23.5708 24.94 23.4785C24.7637 23.376 24.5667 23.3247 24.349 23.3247C24.1417 23.3247 23.9343 23.376 23.7581 23.4785C23.5819 23.5811 23.4367 23.7246 23.333 23.8989C23.2086 24.1143 22.9909 24.2373 22.7421 24.2373C22.4933 24.2373 22.2756 24.1143 22.1512 23.8989C22.0475 23.7144 21.9024 23.5708 21.7261 23.4785C21.5499 23.376 21.3529 23.3247 21.1352 23.3247C20.9279 23.3247 20.7205 23.376 20.5443 23.4785C20.368 23.5811 20.2229 23.7246 20.1192 23.8989C20.057 24.0015 19.9741 24.0937 19.8704 24.145C19.7667 24.2065 19.6527 24.2373 19.5283 24.2373C19.4039 24.2373 19.2899 24.2065 19.1862 24.145C18.9063 23.981 18.8752 23.6836 18.5019 23.4683C18.3257 23.3657 18.1287 23.3145 17.9214 23.3145C17.5067 23.3145 17.1127 23.54 16.9054 23.8989C16.8432 24.0015 16.7603 24.0835 16.6566 24.145C16.5529 24.2065 16.4389 24.2373 16.3145 24.2373C16.1901 24.2373 16.076 24.2065 15.9724 24.145C15.8687 24.0835 15.7857 24.0015 15.7235 23.8989C15.6199 23.7144 15.4747 23.5708 15.2985 23.4785C15.1222 23.376 14.9253 23.3247 14.7179 23.3247C14.5106 23.3247 14.3136 23.376 14.1374 23.4785C13.9611 23.5811 13.816 23.7246 13.7123 23.8989C13.5879 24.1143 13.3702 24.2373 13.1214 24.2373C12.8726 24.2373 12.6549 24.1143 12.5304 23.8989C12.4268 23.7144 12.2816 23.5708 12.1054 23.4785C11.9292 23.376 11.7322 23.3247 11.5145 23.3247C11.3071 23.3247 11.0998 23.376 10.9235 23.4785C10.7473 23.5811 10.6022 23.7246 10.4985 23.8989C10.4259 24.022 10.3015 24.1348 10.1667 24.186V21.9097H30.5382V23.3452C30.1961 23.417 29.9162 23.6221 29.7607 23.8989ZM10.4259 14.3936H11.3797V14.8755H10.4259V14.3936ZM9.74169 14.2397L8.96415 15.0088V15.501C8.96415 15.8496 9.10929 16.1675 9.33737 16.3931C9.56545 16.6187 9.88682 16.7622 10.2393 16.7622H11.6389V14.2295H9.74169V14.2397ZM13.6708 13.7578L13.816 13.9014L18.8648 18.895H21.3633C21.9024 18.895 22.4207 19.0488 22.8562 19.3154C23.2708 19.5718 23.6026 19.9204 23.841 20.3306H29.3356V12.3633C29.3356 11.8916 29.1387 11.4609 28.8276 11.1431C28.5166 10.8354 28.0708 10.6406 27.594 10.6406C27.1171 10.6406 26.6816 10.8354 26.3603 11.1431C26.0389 11.4507 25.8523 11.8813 25.8523 12.3633V13.0811C26.0907 13.2144 26.2877 13.3989 26.4328 13.6143C26.5987 13.8706 26.7024 14.1782 26.7024 14.5063V16.147H23.3434V14.5063C23.3434 14.1782 23.4471 13.8706 23.613 13.6143C23.7581 13.3887 23.9551 13.2041 24.1935 13.0811V12.3633C24.1935 11.4404 24.5771 10.5996 25.1888 9.98438C25.8004 9.3794 26.6505 9 27.594 9C28.527 9 29.3771 9.3794 29.9991 9.98438C30.6108 10.5894 30.9944 11.4302 30.9944 12.3633V20.3306H31.2017C31.6372 20.3306 32 20.6895 32 21.1201C32 21.5508 31.6372 21.9097 31.2017 21.9097H30.9944V25.3345C30.9944 26.6162 30.4657 27.7852 29.6052 28.626C28.7551 29.4668 27.5732 30 26.2773 30H14.3654C13.0695 30 11.8877 29.4771 11.0376 28.626C10.1875 27.7852 9.64838 26.6162 9.64838 25.3345V21.9097H8.79827C8.36285 21.9097 8 21.5508 8 21.1201C8 20.6895 8.36285 20.3306 8.79827 20.3306H13.3287V18.2285H12.7274C12.1676 18.2285 11.6907 17.7979 11.6492 17.2441H10.2497C9.76241 17.2441 9.31663 17.0493 9.00561 16.7314C8.68423 16.4136 8.48725 15.9727 8.48725 15.501V13.7476H13.6708V13.7578ZM12.1261 14.2397V17.1621C12.1261 17.4902 12.3957 17.7568 12.7274 17.7568H13.3287V14.25H12.1261V14.2397ZM23.2605 20.3306C23.0842 20.0845 22.8562 19.8794 22.597 19.7153C22.2341 19.5 21.8194 19.3667 21.3633 19.3667H19.0099V20.3203H23.2605V20.3306ZM18.5227 20.3306V19.2334L13.816 14.5781V20.3306H18.5227ZM26.2462 16.5776H25.759V17.8491H26.2462V16.5776ZM25.2717 16.5776H24.7845V17.8491H25.2717V16.5776ZM24.2972 16.5776H23.8099V17.8491H24.2972V16.5776ZM24.6808 12.3633V13.3887L24.5356 13.4502C24.3283 13.5425 24.1521 13.6963 24.0173 13.8809C23.8929 14.0654 23.8307 14.2808 23.8307 14.5166V15.6753H26.2151V14.5166C26.2151 14.2808 26.1426 14.0654 26.0285 13.8809C25.9041 13.6963 25.7279 13.5425 25.5102 13.4502L25.365 13.3887V12.3633C25.365 11.7583 25.6138 11.2046 26.0181 10.8047C26.4225 10.4048 26.9823 10.1587 27.594 10.1587C28.2056 10.1587 28.7654 10.4048 29.1698 10.8047C29.5741 11.2046 29.8229 11.7583 29.8229 12.3633V20.3306H30.5071V12.3633C30.5071 11.5737 30.1754 10.856 29.6467 10.333C29.1179 9.81006 28.3922 9.48193 27.594 9.48193C26.7957 9.48193 26.07 9.81006 25.5412 10.333C25.0125 10.8457 24.6808 11.5737 24.6808 12.3633Z" fill="#0B0F3C"/>
</svg>
